<svg xmlns="http://www.w3.org/2000/svg" width="19" height="19" fill="none" viewBox="0 0 19 19"><path fill="#003466" fill-rule="evenodd" d="M0.749982 0.750018C0.105649 1.39435 0.10565 2.43902 0.749983 3.08335L7.16663 9.5L0.749983 15.9166C0.105651 16.561 0.105651 17.6057 0.749983 18.25C1.39432 18.8943 2.43898 18.8943 3.08332 18.25L9.49996 11.8333L15.9166 18.25C16.561 18.8943 17.6056 18.8944 18.25 18.25C18.8943 17.6057 18.8943 16.561 18.25 15.9167L11.8333 9.5L18.25 3.08332C18.8943 2.43898 18.8943 1.39432 18.25 0.749983C17.6057 0.105651 16.561 0.105652 15.9166 0.749985L9.49996 7.16667L3.08332 0.750019C2.43898 0.105686 1.39431 0.105686 0.749982 0.750018Z" clip-rule="evenodd"/></svg>