<svg width="190" height="39" viewBox="0 0 190 39" fill="none" xmlns="http://www.w3.org/2000/svg">
<path fill-rule="evenodd" clip-rule="evenodd" d="M64.0789 9.37772H110.558V37.5711H64.0789V9.37772ZM85.9578 12.958H105.527L90.4999 32.3458H106.657V34.3576H67.9773L82.9546 14.9589H67.98V12.9772H85.9578V12.958ZM100.935 14.937H86.0158L72.5276 32.3458H87.505L100.935 14.937ZM168.119 21.7144C168.068 22.0845 168.043 22.4577 168.044 22.8312C168.048 24.8143 168.645 26.7517 169.761 28.3983C170.876 30.045 172.46 31.3268 174.311 32.0816C176.162 32.8365 178.197 33.0304 180.159 32.6389C182.121 32.2474 183.922 31.2881 185.334 29.8823C185.671 29.5483 185.992 29.2007 186.298 28.8339L188.442 29.5839C187.98 30.2401 187.446 30.8441 186.851 31.385C185.719 32.537 184.368 33.4547 182.875 34.085C181.382 34.7153 179.778 35.0457 178.156 35.0568C176.533 35.068 174.924 34.7597 173.423 34.15C171.922 33.5403 170.558 32.6412 169.41 31.5049C168.262 30.3687 167.353 29.0179 166.737 27.5309C166.12 26.044 165.808 24.4505 165.818 22.843C165.828 21.2354 166.16 19.6459 166.795 18.1665C167.43 16.6872 168.355 15.3476 169.517 14.2254C171.816 11.9484 174.933 10.6693 178.184 10.6693C181.435 10.6693 184.552 11.9484 186.851 14.2254C187.861 15.1965 188.66 16.3615 189.2 17.6492C189.739 18.9369 190.008 20.3202 189.989 21.7144H168.119ZM168.503 19.6861H187.741C187.276 18.1968 186.45 16.8433 185.334 15.7445C184.394 14.8109 183.276 14.0703 182.047 13.565C180.817 13.0596 179.499 12.7995 178.167 12.7995C176.836 12.7995 175.518 13.0596 174.288 13.565C173.058 14.0703 171.941 14.8109 171.001 15.7445C169.875 16.8522 169.021 18.2005 168.503 19.6861ZM146.953 17.4963V34.3576H144.936V12.635H146.953V14.0392C148.767 12.2381 150.885 11.3376 153.307 11.3376C155.897 11.3376 158.006 12.1405 159.634 13.7463C161.262 15.3522 162.091 17.375 162.121 19.8148V34.3576H160.129V20.0146C160.143 19.1312 159.971 18.2547 159.623 17.4414C159.274 16.6282 158.758 15.8963 158.106 15.2929C156.835 14.0437 155.119 13.3405 153.328 13.3354C151.538 13.3302 149.817 14.0236 148.539 15.2655C147.874 15.9013 147.332 16.6529 146.942 17.4826L146.953 17.4963ZM128.378 12.7856C126.03 12.7748 123.751 13.5714 121.929 15.0395C120.108 16.5076 118.856 18.5563 118.389 20.8362C117.922 23.1161 118.267 25.486 119.366 27.5418C120.466 29.5976 122.251 31.2119 124.417 32.1095C126.584 33.007 128.997 33.1323 131.246 32.4638C133.496 31.7953 135.441 30.3745 136.751 28.4437C138.061 26.5128 138.654 24.1916 138.43 21.8758C138.206 19.56 137.177 17.3931 135.52 15.7445C134.597 14.7943 133.487 14.0416 132.258 13.5327C131.03 13.0238 129.71 12.7695 128.378 12.7856ZM128.378 10.6752C130.8 10.6773 133.168 11.3902 135.181 12.724C137.195 14.0578 138.764 15.9527 139.692 18.1695C140.619 20.3863 140.863 22.8256 140.393 25.1796C139.922 27.5336 138.758 29.6967 137.048 31.396C135.624 32.8066 133.87 33.8476 131.943 34.4266C130.015 35.0057 127.973 35.105 125.998 34.7157C124.023 34.3265 122.175 33.4607 120.617 32.1951C119.06 30.9294 117.842 29.3029 117.071 27.4596C116.3 25.6163 115.999 23.613 116.196 21.6272C116.392 19.6413 117.08 17.7341 118.198 16.0744C119.316 14.4147 120.83 13.0537 122.606 12.1119C124.382 11.1702 126.364 10.6767 128.378 10.6752ZM45.217 12.7856C42.8661 12.7708 40.5828 13.5648 38.7568 15.032C36.9309 16.4992 35.6755 18.5488 35.2048 20.8309C34.7341 23.1129 35.0774 25.4861 36.176 27.5454C37.2747 29.6047 39.0606 31.2224 41.229 32.1225C43.3973 33.0226 45.8138 33.1493 48.066 32.481C50.3181 31.8127 52.2664 30.3907 53.5783 28.4579C54.8902 26.525 55.4844 24.201 55.2595 21.8824C55.0346 19.5639 54.0046 17.3945 52.3451 15.7445C51.4205 14.7928 50.3086 14.0392 49.0783 13.5303C47.848 13.0213 46.5253 12.7679 45.1922 12.7856H45.217ZM45.217 10.6752C47.6386 10.6786 50.005 11.3923 52.0177 12.7263C54.0303 14.0603 55.5993 15.9549 56.5266 18.1712C57.4539 20.3874 57.698 22.8261 57.2282 25.1796C56.7585 27.5332 55.5958 29.6962 53.8868 31.396C52.4623 32.8066 50.7088 33.8476 48.7813 34.4266C46.8539 35.0057 44.8121 35.105 42.8367 34.7157C40.8614 34.3265 39.0133 33.4607 37.4562 32.1951C35.8991 30.9294 34.681 29.3029 33.9097 27.4596C33.1385 25.6163 32.8379 23.613 33.0345 21.6272C33.2311 19.6413 33.9189 17.7341 35.037 16.0744C36.1551 14.4147 37.669 13.0537 39.4447 12.1119C41.2203 11.1702 43.203 10.6767 45.217 10.6752ZM28.3638 5.1706V34.3385H26.3414V5.1706H28.3638ZM20.1278 29.1131L22.2441 29.8823C21.8494 30.4175 21.4114 30.9201 20.9345 31.385C19.7992 32.5161 18.4493 33.4137 16.9627 34.0262C15.476 34.6387 13.8817 34.954 12.2716 34.954C10.6615 34.954 9.06731 34.6387 7.58063 34.0262C6.09394 33.4137 4.74412 32.5161 3.60878 31.385C1.89592 29.6888 0.728964 27.5276 0.255347 25.1746C-0.218271 22.8216 0.0227045 20.3822 0.947825 18.1648C1.87295 15.9474 3.4407 14.0514 5.45301 12.7164C7.46531 11.3814 9.83187 10.6673 12.2537 10.6642C13.8696 10.636 15.474 10.9373 16.9674 11.5495C18.4608 12.1616 19.8111 13.0715 20.9345 14.2226C21.4115 14.6845 21.8495 15.1844 22.2441 15.7171L20.1278 16.4945C19.915 16.2208 19.6774 15.9662 19.4205 15.6925C18.4883 14.7499 17.3721 14.0053 16.1399 13.5042C14.9078 13.003 13.5855 12.7557 12.2537 12.7774C10.5878 12.7759 8.94739 13.1819 7.47791 13.9592C6.00843 14.7366 4.75536 15.8613 3.8299 17.2336C2.90444 18.6059 2.33521 20.1833 2.17272 21.8258C2.01023 23.4683 2.25951 25.1252 2.89844 26.6494C3.53736 28.1736 4.54617 29.5179 5.83535 30.5632C7.12452 31.6084 8.6542 32.3222 10.2886 32.6412C11.9231 32.9602 13.6117 32.8745 15.2047 32.3918C16.7977 31.9091 18.2458 31.0443 19.4205 29.8741C19.6672 29.6323 19.9014 29.3783 20.1222 29.1131H20.1278ZM77.4814 7.92973H97.1583C96.6194 6.82416 95.9038 5.81205 95.0392 4.93247C94.0554 3.88202 92.8606 3.04712 91.5316 2.48144C90.2027 1.91575 88.769 1.63179 87.3226 1.6478C84.3222 1.6478 81.7472 2.76732 79.606 4.93247C78.7343 5.80856 78.0145 6.82128 77.4759 7.92973H77.4814ZM62.4433 7.92973H75.8044C76.4228 6.27829 77.4021 4.78274 78.6722 3.55017C80.9701 1.27676 84.0848 -0.000152588 87.3323 -0.000152588C90.5798 -0.000152588 93.6945 1.27676 95.9924 3.55017C97.2593 4.7832 98.2349 6.27885 98.8492 7.92973H112.205V39.0109H62.4295V7.92973H62.4433Z" fill="white"/>
</svg>
