<svg xmlns="http://www.w3.org/2000/svg" width="100" height="58" fill="none" viewBox="0 0 100 58"><path fill="#fff" d="M35.422 48.8329C33.931 48.8329 32.4801 48.8329 30.9576 48.8329C30.9576 51.5787 30.9576 54.2688 30.9576 57.0366C29.4714 56.0743 28.07 55.1706 26.6724 54.2601C24.026 52.5343 21.3871 50.7979 18.7321 49.0874C18.4843 48.928 18.1401 48.8521 17.8398 48.8521C12.0884 48.8387 6.33694 48.8368 0.586464 48.8521C0.12696 48.8531 -0.0370128 48.7311 0.00684035 48.2643C0.116473 47.0955 0.199413 45.9239 0.288072 44.7541C0.329065 44.2153 0.360525 43.6756 0.390078 43.1358C0.456811 41.8969 0.514011 40.657 0.586464 39.4191C0.675124 37.8959 0.77427 36.3736 0.872463 34.8514C0.931569 33.9323 0.992582 33.0132 1.06599 32.095C1.08124 31.8972 1.15179 31.7042 1.19755 31.5092C1.25093 31.4765 1.30432 31.4429 1.35866 31.4103C1.66277 31.7627 1.94305 32.1392 2.27481 32.4629C3.7048 33.8593 5.45797 34.6103 7.39418 34.9311C8.32273 35.0848 9.27129 35.2163 10.2084 35.2029C12.1542 35.175 14.0694 34.8985 15.8407 34.0072C17.57 33.1361 18.9066 31.8453 19.8342 30.1301C20.553 28.7999 20.92 27.3651 21.0783 25.8717C21.1078 25.5922 21.2136 25.5259 21.4634 25.5269C23.3701 25.5326 25.2767 25.5288 27.1824 25.5326C27.2987 25.5326 27.415 25.572 27.661 25.6171C25.1566 28.8182 22.718 31.9356 20.2346 35.1097C20.4567 35.1193 20.6226 35.1338 20.7885 35.1338C25.1576 35.1347 29.5267 35.1347 33.8958 35.1347C34.5049 35.1347 34.5478 35.1712 34.5965 35.8032C34.6346 36.2939 34.667 36.7856 34.6927 37.2774C34.7604 38.5806 34.8129 39.8839 34.891 41.1862C35.0083 43.1204 35.1408 45.0547 35.2724 46.988C35.3115 47.5825 35.3677 48.1779 35.422 48.8329Z"/><path fill="#fff" d="M24.9813 13.0023C24.8697 12.1514 24.7992 11.3649 24.66 10.5908C24.354 8.89471 23.8573 7.25531 23.0574 5.72251C22.3281 4.32321 21.4091 3.04972 20.0287 2.27179C18.5625 1.44585 17.1525 1.32964 15.4661 2.40241C13.8502 3.43003 12.8196 4.96956 12.1561 6.71941C11.6366 8.09086 11.2915 9.53242 10.933 10.9596C10.7729 11.5963 10.7719 12.2724 10.6909 13.0023C10.9073 13.0023 11.076 13.0023 11.2447 13.0023C12.5956 13.0023 13.9455 13.012 15.2964 12.9956C15.6444 12.9918 15.7645 13.0936 15.7635 13.4566C15.7521 17.1542 15.7969 20.8517 15.7378 24.5473C15.713 26.1051 15.3269 27.5966 14.141 28.7491C13.4936 29.3791 12.7167 29.7104 11.8511 29.892C10.6327 30.1484 9.44296 30.0696 8.27418 29.648C6.95191 29.1707 6.12347 28.1796 5.71926 26.8869C5.43898 25.9908 5.25403 25.0275 5.23973 24.0911C5.18539 20.5866 5.22638 17.0812 5.20732 13.5767C5.20446 13.109 5.3446 12.9783 5.79743 12.9927C6.79747 13.0244 7.79942 12.9947 8.79946 13.0071C9.09309 13.011 9.20653 12.9361 9.23132 12.6095C9.38385 10.6215 9.85575 8.70359 10.5431 6.83465C11.0579 5.43343 11.7672 4.14745 12.6614 2.95848C13.7653 1.49098 15.1343 0.384603 16.9666 0.0772752C18.6006 -0.196439 20.1031 0.266474 21.4025 1.31523C23.0355 2.6329 24.0928 4.37315 24.905 6.27666C25.6057 7.91703 26.0204 9.64383 26.3178 11.4004C26.3807 11.775 26.4227 12.1572 26.4294 12.5366C26.436 12.8813 26.5552 13.012 26.9098 13.0091C28.8003 12.9956 30.6907 13.01 32.5821 12.9966C32.9406 12.9937 33.1084 13.0465 33.1255 13.4806C33.1847 14.9251 33.3029 16.3666 33.3972 17.8092C33.4611 18.7926 33.5174 19.7761 33.5917 20.7585C33.6184 21.1158 33.4869 21.2253 33.1332 21.2243C29.2884 21.2138 25.4436 21.2138 21.5988 21.2243C21.2471 21.2253 21.1336 21.1187 21.1355 20.7605C21.1489 18.3278 21.1479 15.8951 21.1355 13.4624C21.1336 13.108 21.2394 12.9889 21.596 12.9956C22.6895 13.0148 23.7839 13.0023 24.9813 13.0023Z"/><path fill="#fff" d="M89.7388 35.2404C88.3527 35.2404 87.0075 35.2404 85.5747 35.2404C85.5747 35.0454 85.5747 34.862 85.5747 34.6786C85.5747 32.1652 85.5623 29.6518 85.5794 27.1394C85.589 25.7497 84.7901 24.7221 83.8349 24.3168C82.3133 23.6714 80.973 24.1852 80.1531 25.2013C79.768 25.6786 79.5649 26.2462 79.5649 26.8772C79.5668 29.454 79.5659 32.0317 79.5659 34.6085C79.5659 34.7986 79.5659 34.9878 79.5659 35.2202C78.1587 35.2202 76.7898 35.2202 75.3655 35.2202C75.3655 34.8092 75.3378 34.4106 75.3798 34.0197C75.395 33.8795 75.5523 33.7201 75.6858 33.6317C77.0414 32.7366 78.0253 31.5342 78.5563 29.9966C79.1092 28.3947 79.0034 26.8042 78.2874 25.2638C77.7593 24.1266 76.9738 23.1999 75.9518 22.4949C75.519 22.1972 75.2644 21.8764 75.356 21.329C75.3893 21.1311 75.3617 20.9237 75.3617 20.6922C76.786 20.6922 78.1435 20.6922 79.5706 20.6922C79.5706 21.1696 79.5706 21.6219 79.5706 22.0541C80.1989 21.7228 80.7566 21.3597 81.3629 21.1225C83.6394 20.2313 85.7625 20.578 87.7149 22.033C87.9733 22.225 88.1992 22.6025 88.4547 22.6179C88.6882 22.6313 88.9352 22.2567 89.1887 22.0714C91.5949 20.3062 94.7219 20.1391 97.2568 21.7228C98.9394 22.7734 99.969 24.2822 99.9766 26.3548C99.988 29.188 99.9804 32.0211 99.9795 34.8543C99.9795 34.9638 99.9652 35.0742 99.9547 35.2241C98.5838 35.2241 97.2262 35.2241 95.7762 35.2241C95.7762 35.0512 95.7762 34.8687 95.7762 34.6862C95.7762 32.1729 95.7248 29.6586 95.7915 27.1471C95.8477 25.0352 93.8057 23.5274 91.7913 24.1881C90.5072 24.6097 89.8742 25.4462 89.8618 26.7975C89.8361 29.4991 89.7998 32.1998 89.7674 34.9014C89.7665 34.9974 89.7522 35.0915 89.7388 35.2404Z"/><path fill="#fff" d="M49.8033 30.6361C49.3571 31.6753 48.6764 32.508 47.8461 33.2138C46.7002 34.1887 45.3741 34.7995 43.9012 35.0847C41.8191 35.4881 39.8095 35.2701 37.9019 34.3202C36.2727 33.5087 35.0057 32.3159 34.2316 30.6323C34.1982 30.5593 34.1563 30.4911 34.1267 30.4172C33.754 29.5 33.7549 29.499 32.7892 29.499C31.9951 29.499 31.2 29.499 30.4059 29.499C30.2524 29.499 30.0999 29.499 29.8005 29.499C30.0627 29.1456 30.2362 28.8988 30.4231 28.6635C30.9655 27.9816 31.4975 27.2891 32.0733 26.6361C32.201 26.491 32.4918 26.4363 32.7082 26.4353C36.839 26.4238 40.9707 26.4267 45.1015 26.4267C45.2864 26.4267 45.4723 26.4267 45.7335 26.4267C45.2283 25.3443 44.4522 24.673 43.435 24.3311C41.8363 23.7933 40.3844 24.1294 39.1022 25.2339C38.9792 25.3395 38.8076 25.4519 38.6579 25.4529C37.2441 25.4682 35.8294 25.4615 34.4156 25.4577C34.3584 25.4577 34.3012 25.4279 34.1163 25.377C34.5052 24.7931 34.8217 24.2274 35.2221 23.7309C36.5568 22.0799 38.3223 21.109 40.3806 20.7911C43.5952 20.2945 46.4695 21.0705 48.6974 23.5666C50.0597 25.0927 50.6422 26.9223 50.3114 29.0044C50.2437 29.4328 50.053 29.5048 49.6803 29.5038C46.0891 29.4942 42.4989 29.4981 38.9077 29.4981C38.7237 29.4981 38.5407 29.4981 38.2785 29.4981C38.9067 30.8897 39.9287 31.6369 41.2891 31.8895C42.7 32.1507 43.9413 31.7588 44.9689 30.7226C45.0595 30.6313 45.2139 30.5555 45.3388 30.5545C46.7841 30.5468 48.2303 30.5555 49.6755 30.5622C49.7013 30.5641 49.728 30.5929 49.8033 30.6361Z"/><path fill="#fff" d="M62.9007 30.1129C63.4126 31.347 64.1696 32.3669 65.1887 33.2217C63.9093 34.3021 62.4755 34.9158 60.8882 35.1598C58.5144 35.5247 56.2856 35.0896 54.2807 33.7441C52.7335 32.7059 51.6266 31.2845 51.1976 29.4367C50.8297 27.8511 51.0175 26.2943 51.8297 24.8643C53.2149 22.4248 55.3751 21.1552 58.0883 20.7557C59.9197 20.4868 61.6843 20.724 63.3535 21.5298C63.9875 21.8352 64.5748 22.2385 65.2526 22.6381C64.2096 23.5927 63.3516 24.5589 62.9265 25.864C60.7958 23.1711 57.7289 23.852 56.4448 25.258C54.989 26.8513 54.9595 28.9834 56.3618 30.5806C57.7556 32.1681 60.7471 32.7011 62.9007 30.1129Z"/><path fill="#fff" d="M74.7038 28.0229C74.7009 30.2548 72.8896 32.1017 70.7112 32.093C68.4728 32.0844 66.6929 30.2692 66.6958 27.9969C66.6987 25.8283 68.5615 24.017 70.7827 24.0257C72.86 24.0343 74.7066 25.9167 74.7038 28.0229Z"/><path fill="#fff" d="M67.1719 41.1804C67.1719 41.5204 67.1719 41.8354 67.1719 42.1494C67.1719 42.451 67.1719 42.7525 67.1719 43.0954C66.9393 43.0954 66.7467 43.0954 66.495 43.0954C66.495 42.6767 66.495 42.28 66.495 41.8843C66.495 40.6205 66.4903 39.3566 66.4998 38.0927C66.5017 37.8843 66.373 37.5481 66.7715 37.5664C66.9469 37.575 67.1166 37.7066 67.373 37.8199C68.2596 37.2898 69.1214 37.3244 69.7068 37.9861C70.4046 38.7746 70.4456 40.0212 69.8031 40.9057C69.2406 41.6817 68.4732 41.772 67.1719 41.1804ZM69.5543 39.5573C69.5543 39.4776 69.56 39.3969 69.5533 39.3182C69.4923 38.6267 69.0442 38.0975 68.4856 38.0495C67.8545 37.9966 67.3692 38.3894 67.2081 39.1309C67.1032 39.612 67.1547 40.0913 67.4484 40.5023C67.7763 40.9614 68.2082 41.1045 68.6877 40.9508C69.2168 40.7808 69.5495 40.2478 69.5543 39.5573Z"/><path fill="#fff" d="M52.0396 37.9639C52.0787 37.8045 52.1083 37.6854 52.1426 37.549C52.2904 37.5356 52.4477 37.4924 52.5897 37.5221C52.6631 37.5375 52.7461 37.6768 52.7613 37.7709C52.7899 37.9418 52.7737 38.1214 52.7737 38.2982C52.7737 39.8809 52.7737 41.4646 52.7737 43.0925C52.5478 43.0925 52.3552 43.0925 52.1083 43.0925C52.1083 42.4336 52.1083 41.7844 52.1083 41.0574C51.5477 41.4214 51.0301 41.7719 50.4295 41.5433C50.0462 41.3974 49.6315 41.1678 49.3875 40.8528C48.7459 40.025 48.8956 38.5738 49.5829 37.9562C50.2817 37.3272 51.0758 37.283 52.0396 37.9639ZM49.725 39.4785C49.725 39.5736 49.7135 39.6715 49.7269 39.7647C49.7993 40.2583 49.9948 40.6809 50.4609 40.9133C50.8566 41.1102 51.2932 41.067 51.5544 40.7501C51.8099 40.4398 52.0044 40.0163 52.0625 39.6187C52.1722 38.8581 51.6307 37.939 50.7403 38.0427C50.1282 38.1147 49.7259 38.6487 49.725 39.4785Z"/><path fill="#fff" d="M82.7757 41.5811C82.5479 41.462 82.32 41.3429 82.0331 41.1931C81.6003 41.6406 80.9577 41.7847 80.2847 41.413C79.5945 41.0317 79.2732 40.3998 79.2799 39.595C79.2885 38.4502 79.6812 37.7683 80.5183 37.533C81.1189 37.3639 81.6775 37.4494 82.2276 37.9776C82.2276 37.2871 82.2276 36.6917 82.2276 36.1135C82.8835 35.9742 82.914 35.9935 82.9149 36.5457C82.9168 38.1745 82.9159 39.8043 82.9159 41.4332C82.8682 41.4821 82.8215 41.5321 82.7757 41.5811ZM82.2991 39.546C82.1847 39.205 82.096 38.8526 81.9502 38.527C81.7604 38.1025 81.361 37.9508 80.9596 38.0708C80.6603 38.1601 80.3438 38.3858 80.1693 38.6432C80.0063 38.8843 79.9787 39.2463 79.9672 39.5575C79.9358 40.3729 80.4782 41.0269 81.1389 41.0221C81.7261 41.0173 82.2219 40.3556 82.2991 39.546Z"/><path fill="#fff" d="M69.1967 45.6855C69.3559 45.4387 69.4655 45.1256 69.6848 44.9556C70.3855 44.412 71.9003 44.3851 72.4199 45.2341C72.5133 45.3868 72.5915 45.5741 72.5982 45.7489C72.6201 46.3242 72.5991 46.9004 72.6106 47.4767C72.6163 47.7417 72.4981 48.0596 72.9013 48.1931C72.9719 48.2162 72.9604 48.4908 72.989 48.6599C72.4637 48.7857 72.1196 48.6676 71.9413 48.1067C71.438 48.6205 70.8545 48.7857 70.1996 48.7089C69.7506 48.656 69.3883 48.4784 69.1843 48.0385C68.9965 47.6332 69.0756 47.249 69.3893 46.9974C69.6753 46.7688 70.0499 46.6382 70.4007 46.5095C70.7697 46.3741 71.1663 46.3127 71.5343 46.1724C71.6639 46.1235 71.8241 45.9371 71.8222 45.8152C71.8203 45.6605 71.7068 45.4483 71.5762 45.3628C71.0357 45.0123 70.4541 45.1544 70.0089 45.6289C69.8669 45.7806 69.5876 45.8017 69.3711 45.8824C69.313 45.8171 69.2548 45.7508 69.1967 45.6855ZM71.9108 46.6142C71.314 46.7919 70.7592 46.9504 70.2091 47.1252C69.9346 47.2126 69.741 47.4344 69.865 47.7033C69.9508 47.8896 70.2034 48.0952 70.3998 48.1163C71.2902 48.2123 71.7907 47.71 71.9108 46.6142Z"/><path fill="#fff" d="M60.8797 46.7892C60.913 47.5123 61.2066 47.9282 61.75 48.103C62.2439 48.2624 62.8397 48.0876 63.1324 47.6257C63.3288 47.3164 63.5413 47.3452 63.9246 47.4528C63.7511 47.7467 63.6567 48.0569 63.4498 48.2326C62.8044 48.7791 62.0418 48.8982 61.2753 48.5496C60.5269 48.2086 60.1275 47.5978 60.1075 46.7363C60.0874 45.895 60.361 45.2247 61.1085 44.8203C61.8606 44.4141 62.5985 44.4871 63.2954 44.9922C63.7902 45.3505 63.9255 45.8912 64.0123 46.4424C64.0619 46.7546 63.814 46.7911 63.5709 46.7901C62.8559 46.7872 62.1409 46.7892 61.4259 46.7901C61.2543 46.7892 61.0818 46.7892 60.8797 46.7892ZM63.2229 46.2667C63.1286 45.5329 62.6843 45.1449 62.0027 45.1603C61.4259 45.1738 60.9416 45.6396 60.8835 46.2667C61.6528 46.2667 62.4202 46.2667 63.2229 46.2667Z"/><path fill="#fff" d="M59.8739 39.6812C59.8463 40.317 60.1332 40.7223 60.7272 40.9586C61.1485 41.1257 61.7987 40.9739 62.0456 40.5667C62.2515 40.2277 62.4965 40.2239 62.8083 40.2892C62.6767 41.0834 61.8874 41.6337 60.9379 41.602C60.056 41.5723 59.1894 40.7511 59.0693 39.8579C58.893 38.5576 59.7061 37.7172 60.4335 37.5165C61.6471 37.1804 62.7654 37.8949 62.9665 39.1444C63.0218 39.4882 62.9275 39.6956 62.5213 39.686C61.7911 39.6687 61.0608 39.6812 60.3306 39.6812C60.1761 39.6812 60.0227 39.6812 59.8739 39.6812ZM59.8625 39.0637C60.6385 39.0637 61.4117 39.0637 62.1953 39.0637C61.9827 38.2637 61.5842 37.9823 60.8091 38.0495C60.2514 38.0985 59.9369 38.427 59.8625 39.0637Z"/><path fill="#fff" d="M76.2863 37.4667C77.4303 37.4004 78.3264 38.2753 78.315 39.545C78.3045 40.6946 77.4799 41.6079 76.3759 41.5983C74.9793 41.5858 74.4006 40.7522 74.3444 39.5671C74.2881 38.379 75.0746 37.4215 76.2863 37.4667ZM77.6429 39.5555C77.5676 38.6979 77.0709 38.0708 76.3959 38.0487C75.394 38.016 74.7953 39.0705 75.1871 40.1683C75.353 40.6341 75.6972 40.9212 76.1519 41.0009C76.598 41.0787 77.0204 40.8915 77.2701 40.5083C77.4513 40.2297 77.5228 39.8763 77.6429 39.5555Z"/><path fill="#fff" d="M89.6837 46.7066C89.801 47.7275 88.8152 48.8156 87.6665 48.7273C86.5111 48.6379 85.7522 47.8504 85.7656 46.5625C85.7779 45.3774 86.6064 44.5812 87.7952 44.5764C88.7466 44.5735 89.7705 45.4014 89.6837 46.7066ZM87.7208 48.1347C88.4921 48.1357 89.0069 47.5306 89.0069 46.6259C89.0069 45.8192 88.4558 45.1844 87.7418 45.168C87.0239 45.1517 86.3986 45.8749 86.4615 46.7498C86.5263 47.6631 87.104 48.2346 87.7208 48.1347Z"/><path fill="#fff" d="M38.6634 48.71C37.6996 48.8031 36.6919 47.9791 36.7196 46.575C36.7377 45.6617 37.5413 44.5447 38.6462 44.5735C39.7874 44.6033 40.6663 45.4782 40.6644 46.6528C40.6625 47.8812 39.856 48.71 38.6634 48.71ZM39.9027 46.6624C39.9037 45.8893 39.4861 45.2967 38.854 45.1757C38.2849 45.0662 37.7501 45.4523 37.4879 46.162C37.283 46.7181 37.5394 47.6689 37.9675 47.9359C38.3545 48.177 38.7778 48.2365 39.1849 48.0464C39.7578 47.7784 39.9275 47.2627 39.9027 46.6624Z"/><path fill="#fff" d="M37.7093 37.6087C37.7093 38.4539 37.7074 39.2808 37.7103 40.1086C37.7122 40.7761 37.9105 40.9643 38.5683 40.9298C39.2509 40.8942 39.7952 40.3142 39.7971 39.6159C39.799 39.0407 39.8057 38.4654 39.7952 37.8911C39.7905 37.6404 39.8906 37.5559 40.1327 37.5549C40.3691 37.5549 40.4788 37.625 40.4778 37.8824C40.4721 38.985 40.4854 40.0865 40.4788 41.1891C40.475 41.7173 40.1013 41.4397 39.8381 41.4897C39.8124 41.3072 39.7924 41.1574 39.7857 41.1151C39.2509 41.2486 38.737 41.4484 38.2108 41.4897C37.4929 41.5454 37.0392 41.0412 37.0334 40.3113C37.0287 39.5766 37.0315 38.8419 37.0325 38.1072C37.0334 37.528 37.0344 37.528 37.7093 37.6087Z"/><path fill="#fff" d="M92.2044 45.1038C92.9375 44.5938 93.6763 44.3076 94.4619 44.857C94.6697 45.0029 94.8823 45.3045 94.8937 45.5446C94.9414 46.5463 94.9137 47.5509 94.9137 48.543C94.2788 48.6986 94.2426 48.6726 94.2416 48.0781C94.2407 47.3751 94.2464 46.6721 94.2388 45.9691C94.2321 45.3756 93.8984 45.0913 93.3217 45.172C92.5247 45.2834 92.1548 45.7108 92.1529 46.5242C92.152 47.0995 92.1453 47.6748 92.1558 48.2491C92.1596 48.4998 92.0995 48.6313 91.8135 48.6313C91.5266 48.6304 91.4713 48.4969 91.4732 48.2472C91.4808 47.2407 91.4656 46.2342 91.4856 45.2286C91.4894 45.0452 91.5723 44.7628 91.7001 44.7033C92.0099 44.5564 92.1767 44.7792 92.2044 45.1038Z"/><path fill="#fff" d="M96.5703 40.3142C97.0193 40.2143 97.2481 40.2345 97.4293 40.5946C97.6914 41.1161 98.8135 41.1766 99.1948 40.7175C99.396 40.4755 99.3502 40.2258 99.0633 40.0865C98.7515 39.9348 98.4207 39.8234 98.0966 39.6976C97.8764 39.6121 97.6409 39.5545 97.434 39.4431C97.0622 39.2433 96.7 38.985 96.7476 38.5038C96.7963 38.0198 97.1099 37.6913 97.5799 37.5684C98.3273 37.3744 99.0614 37.335 99.6381 37.9862C99.763 38.1273 99.8231 38.3261 99.9298 38.5307C99.5237 38.6709 99.273 38.6815 99.047 38.3271C98.823 37.9765 97.9603 37.9343 97.6514 38.2138C97.3864 38.4539 97.434 38.7237 97.7057 38.8918C97.9822 39.0628 98.3073 39.1559 98.6114 39.2808C98.8878 39.3941 99.1757 39.4853 99.4408 39.6208C100.111 39.9627 100.19 40.7329 99.6162 41.215C98.8831 41.8326 97.4483 41.7173 96.8515 40.9711C96.719 40.803 96.6742 40.5639 96.5703 40.3142Z"/><path fill="#fff" d="M51.3465 44.7071C51.7202 44.686 52.0806 44.5324 52.0462 44.9914C52.5448 44.8531 53.0291 44.6351 53.5258 44.5996C54.3457 44.542 54.7852 45.0279 54.7861 45.8452C54.7871 46.6452 54.7804 47.4452 54.789 48.2443C54.7918 48.4921 54.7404 48.6304 54.4505 48.6304C54.1655 48.6313 54.1026 48.5017 54.1064 48.2501C54.1159 47.5624 54.1197 46.8738 54.1045 46.1871C54.0969 45.8548 54.2322 45.4447 53.808 45.2632C53.3294 45.0577 52.8747 45.1672 52.4733 45.486C52.1578 45.7367 51.991 46.0488 52.0129 46.48C52.0434 47.0861 52.0119 47.6959 52.0234 48.3029C52.0281 48.5632 51.9004 48.6736 51.6783 48.6131C51.5524 48.5785 51.3627 48.4345 51.3608 48.3365C51.3389 47.1408 51.3465 45.9451 51.3465 44.7071Z"/><path fill="#fff" d="M87.8722 37.5414C87.8722 38.231 87.8712 38.9301 87.8722 39.6284C87.8732 40.0596 87.8598 40.4918 87.8827 40.922C87.9132 41.4896 87.876 41.5338 87.2487 41.4627C87.2335 41.4013 87.2115 41.3292 87.1982 41.2562C87.1849 41.1804 87.1791 41.1035 87.182 41.1247C86.6357 41.2534 86.1095 41.4474 85.5718 41.4877C84.8854 41.5396 84.4326 41.0248 84.4307 40.3227C84.4288 39.5237 84.4183 38.7246 84.4421 37.9256C84.4459 37.7892 84.588 37.5606 84.6929 37.5433C84.9436 37.502 85.1266 37.6067 85.1142 37.9477C85.0885 38.666 85.1009 39.3854 85.1085 40.1047C85.1152 40.7463 85.5337 41.0584 86.1486 40.8903C86.9684 40.6666 87.1944 40.365 87.1953 39.4939C87.1953 39.0147 87.1934 38.5354 87.1963 38.0552C87.1992 37.5155 87.2487 37.4751 87.8722 37.5414Z"/><path fill="#fff" d="M57.1065 41.4916C57.0779 41.3004 57.0569 41.1612 57.0474 41.1007C56.5507 41.238 56.0721 41.4541 55.5812 41.4868C54.7346 41.5434 54.3009 41.0642 54.3009 40.219C54.3009 39.468 54.3066 38.717 54.298 37.9659C54.2951 37.7056 54.3323 37.5433 54.6545 37.551C54.9539 37.5577 54.9825 37.7133 54.9796 37.9496C54.973 38.6689 54.972 39.3873 54.9787 40.1067C54.9844 40.7242 55.2589 40.971 55.871 40.9288C56.5974 40.8788 57.0636 40.3833 57.0655 39.6553C57.0674 39.0637 57.0522 38.472 57.0779 37.8824C57.0836 37.7594 57.2276 37.551 57.3229 37.5414C57.5279 37.5212 57.7548 37.5472 57.7481 37.8929C57.7281 38.9791 57.7366 40.0654 57.7424 41.1525C57.7462 41.6644 57.4049 41.4743 57.1065 41.4916Z"/><path fill="#fff" d="M42.6776 41.4714C42.4383 41.4714 42.2572 41.4714 42.0007 41.4714C42.0007 40.9249 42.0007 40.3871 42.0007 39.8493C42.0007 39.2577 41.9903 38.666 42.0065 38.0754C42.0122 37.8843 41.8768 37.5577 42.2458 37.576C42.4345 37.5856 42.6166 37.7421 42.7806 37.8219C43.222 37.7114 43.7082 37.5164 44.2058 37.4819C45.0266 37.4252 45.4699 37.8228 45.5118 38.643C45.5595 39.5659 45.5223 40.4937 45.5223 41.4618C45.2792 41.4618 45.0676 41.4618 44.7644 41.4618C44.7644 41.1016 44.7644 40.7271 44.7644 40.3516C44.7644 39.8723 44.7254 39.3883 44.773 38.9138C44.8655 37.9947 44.2725 37.9064 43.5632 38.1292C42.9159 38.3318 42.6881 38.7179 42.6786 39.4353C42.6709 40.1038 42.6776 40.7712 42.6776 41.4714Z"/><path fill="#fff" d="M98.2762 48.7101C97.4544 48.7101 96.8843 48.4057 96.6974 47.8275C96.6564 47.6998 96.7422 47.5308 96.7699 47.38C96.9529 47.4472 97.2256 47.4597 97.3037 47.5903C97.626 48.131 98.6155 48.349 99.1113 47.9447C99.3725 47.7315 99.382 47.405 99.0798 47.2551C98.6441 47.039 98.1808 46.8787 97.7223 46.7135C97.0206 46.4609 96.7022 46.1286 96.7337 45.6493C96.7642 45.1778 97.1426 44.8148 97.7995 44.6304C98.4487 44.4479 99.3687 44.688 99.6642 45.1519C99.7595 45.3017 99.7615 45.513 99.8063 45.6964C99.567 45.6513 99.2543 45.6868 99.1017 45.5456C98.6985 45.173 98.3238 45.0308 97.8157 45.2642C97.6765 45.3286 97.5345 45.5216 97.5154 45.6714C97.5001 45.7915 97.6365 45.9999 97.7585 46.0585C98.1417 46.2429 98.5478 46.3831 98.9502 46.5243C99.7548 46.8066 100.058 47.1601 99.9721 47.7382C99.8959 48.2568 99.3105 48.6756 98.6098 48.7092C98.4992 48.714 98.3877 48.7092 98.2762 48.7101Z"/><path fill="#fff" d="M92.7649 40.1019C92.8936 40.9125 92.0423 41.5483 91.1872 41.6002C90.2253 41.6578 89.5474 41.1152 89.2548 40.0674C88.9316 38.9101 89.4883 37.821 90.557 37.5194C91.3845 37.2861 92.1538 37.529 92.6067 38.21C92.7001 38.3502 92.7525 38.6873 92.6858 38.7343C92.4703 38.8851 92.2358 38.864 92.0413 38.5951C91.5132 37.8633 90.4207 37.8642 90.0823 38.5874C89.8201 39.1483 89.8039 39.7187 90.0632 40.2959C90.2586 40.731 90.5847 40.9874 91.0461 41.0086C91.5227 41.0297 91.864 40.7694 92.029 40.3248C92.1939 39.8715 92.5037 40.1202 92.7649 40.1019Z"/><path fill="#fff" d="M77.9684 47.2638C78.0237 48.0494 77.1428 48.7918 76.097 48.7217C74.9387 48.6429 74.3848 47.7392 74.3334 46.5656C74.2866 45.5226 75.1466 44.6102 76.1237 44.5823C77.1762 44.5526 77.8655 45.0385 77.9188 45.8712C77.5756 45.973 77.3449 45.9413 77.0856 45.5927C76.9074 45.3526 76.4593 45.1682 76.1628 45.2056C75.8396 45.2469 75.4278 45.5043 75.2733 45.7877C74.9054 46.4657 75.0055 47.1802 75.4888 47.8016C75.9207 48.3567 76.8559 48.2732 77.0971 47.6143C77.2935 47.0746 77.5995 47.1764 77.9684 47.2638Z"/><path fill="#fff" d="M43.3938 44.6466C43.6016 44.6668 43.817 44.6879 44.062 44.7119C44.062 44.88 44.062 45.0298 44.062 45.2142C43.8352 45.2373 43.6207 45.2594 43.3347 45.2882C43.3347 45.8442 43.3347 46.3974 43.3347 46.9516C43.3347 47.3838 43.327 47.8159 43.3375 48.2481C43.3432 48.4978 43.2841 48.6323 42.9962 48.6313C42.7093 48.6304 42.653 48.4969 42.6559 48.2462C42.6645 47.2724 42.6597 46.2985 42.6597 45.3026C42.4376 45.2709 42.2555 45.244 42.04 45.2133C42.04 45.0557 42.04 44.9059 42.04 44.711C42.7093 44.8089 42.6912 44.3739 42.6626 43.911C42.6416 43.5652 42.7588 43.2166 43.1116 43.1609C43.512 43.0965 43.9362 43.1628 44.3471 43.2041C44.3938 43.2089 44.452 43.4183 44.4424 43.5278C44.4377 43.5777 44.2813 43.6526 44.1946 43.6507C43.3671 43.6315 43.2365 43.7842 43.3938 44.6466Z"/><path fill="#fff" d="M94.2328 37.3964C94.2432 37.1688 94.2585 36.8259 94.2737 36.4926C94.8972 36.3524 94.9315 36.3726 94.9239 36.97C94.9201 37.3032 94.922 37.5769 95.3863 37.527C95.4749 37.5174 95.5855 37.7085 95.6856 37.8065C95.5817 37.89 95.473 38.0504 95.3739 38.0447C95.0059 38.0245 94.9096 38.182 94.9211 38.5268C94.943 39.1328 94.9239 39.7407 94.9287 40.3486C94.9315 40.7655 95.0478 41.0709 95.5588 41.0325C95.6589 41.0248 95.7676 41.1496 95.8725 41.214C95.7905 41.3321 95.7295 41.5251 95.6227 41.5549C94.8886 41.7633 94.1832 41.3705 94.2366 40.6224C94.2957 39.7974 94.2499 38.9647 94.2499 38.1897C94.0573 37.9217 93.5311 38.2646 93.6131 37.7642C93.6369 37.6317 93.9649 37.5481 94.2328 37.3964Z"/><path fill="#fff" d="M81.6299 48.1336C81.6738 48.5428 81.5613 48.7051 81.2 48.7147C80.2657 48.7387 79.9521 48.4659 79.954 47.5305C79.9549 46.9581 80.0073 46.3867 80.0321 45.8152C80.0398 45.6452 80.0331 45.4743 80.0331 45.2947C79.7909 45.263 79.6069 45.238 79.3972 45.2111C79.3972 45.0412 79.3972 44.8894 79.3972 44.7213C79.5869 44.6925 79.7538 44.6666 79.8748 44.6484C80.1646 44.3285 79.5526 43.6495 80.3162 43.6236C81.1466 43.5948 80.4192 44.3497 80.7385 44.6416C80.953 44.6628 81.1675 44.6829 81.4259 44.7079C81.4259 44.8702 81.4259 45.0306 81.4259 45.2169C81.2 45.239 80.9845 45.2601 80.7138 45.287C80.7138 46.1274 80.6966 46.9543 80.7319 47.7793C80.7366 47.9031 80.9683 48.0539 81.1256 48.1221C81.2581 48.1797 81.4335 48.1336 81.6299 48.1336Z"/><path fill="#fff" d="M56.3962 44.7129C56.646 44.685 56.831 44.6649 57.0664 44.6389C57.0664 44.4046 57.0779 44.1837 57.0636 43.9647C57.0455 43.692 57.1589 43.5998 57.4249 43.6036C57.6842 43.6075 57.7633 43.7246 57.7423 43.958C57.7042 44.3902 57.7099 44.7734 58.3296 44.7062C58.382 44.7004 58.4678 45.0001 58.5584 45.2037C58.2257 45.2392 58.0093 45.2622 57.7471 45.2911C57.7471 46.1026 57.7376 46.8997 57.7519 47.6959C57.7576 47.9898 57.9139 48.1684 58.2428 48.1367C58.3649 48.1252 58.4917 48.1511 58.6299 48.1607C58.7348 48.5007 58.6719 48.687 58.2867 48.711C57.3143 48.7706 57.0664 48.5449 57.0664 47.5595C57.0664 46.8114 57.0664 46.0632 57.0664 45.2882C56.8386 45.2632 56.6546 45.244 56.4315 45.22C56.4201 45.0625 56.4096 44.9117 56.3962 44.7129Z"/><path fill="#fff" d="M72.2254 41.4648C71.5514 41.5301 71.5495 41.5301 71.5485 40.9471C71.5476 39.9877 71.539 39.0282 71.5571 38.0697C71.56 37.8998 71.6782 37.5924 71.7497 37.5905C71.947 37.5857 72.1482 37.7077 72.3903 37.796C72.5876 37.7192 72.8698 37.5569 73.1692 37.5156C73.3179 37.4954 73.5905 37.6606 73.643 37.8028C73.7517 38.0986 73.5314 38.1475 73.2655 38.1562C72.5791 38.1773 72.2292 38.5595 72.2263 39.2491C72.2225 39.98 72.2254 40.7108 72.2254 41.4648Z"/><path fill="#fff" d="M67.9304 45.3054C66.53 45.4639 66.4194 45.5907 66.4194 46.9525C66.4194 47.4164 66.4385 47.8822 66.4022 48.3441C66.3946 48.445 66.1925 48.6044 66.08 48.6044C65.9685 48.6044 65.7607 48.4392 65.7587 48.3432C65.7368 47.1465 65.7444 45.9498 65.7444 44.7167C65.9704 44.7167 66.1515 44.7167 66.3651 44.7167C66.3946 44.8367 66.4251 44.9645 66.4299 44.9818C66.9056 44.8454 67.3508 44.7176 67.8847 44.5649C67.9047 44.8944 67.9171 45.0855 67.9304 45.3054Z"/><path fill="#fff" d="M49.2462 44.7289C49.2462 45.844 49.2462 46.9398 49.2462 48.0366C49.2462 48.2085 49.2462 48.3813 49.2462 48.5408C48.6075 48.6992 48.5703 48.6733 48.5703 48.0807C48.5693 47.1251 48.5693 46.1686 48.5703 45.213C48.5703 44.6396 48.5712 44.6396 49.2462 44.7289Z"/><path fill="#fff" d="M83.2866 48.5709C83.2866 48.3808 83.2866 48.2089 83.2866 48.0369C83.2866 46.9411 83.2866 45.8444 83.2866 44.762C83.9244 44.6006 83.9625 44.6285 83.9635 45.2134C83.9644 46.169 83.9644 47.1255 83.9635 48.0811C83.9616 48.6593 83.9606 48.6593 83.2866 48.5709Z"/><path fill="#fff" d="M47.7286 41.4744C47.4893 41.4744 47.3073 41.4744 47.0546 41.4744C47.0546 40.7753 47.0546 40.0934 47.0546 39.4115C47.0546 38.8833 47.0422 38.3551 47.0689 37.8288C47.0747 37.7241 47.2558 37.531 47.3139 37.5454C47.4646 37.5839 47.7086 37.7126 47.7105 37.8096C47.7372 39.0206 47.7286 40.2326 47.7286 41.4744Z"/><path fill="#fff" d="M47.0842 35.98C47.3435 36.053 47.5962 36.0501 47.6886 36.1711C47.7754 36.2835 47.762 36.5956 47.6648 36.6974C47.559 36.8088 47.3083 36.78 47.0842 36.8184C47.0842 36.5236 47.0842 36.3113 47.0842 35.98Z"/><path fill="#fff" d="M49.1728 43.9291C48.9783 43.8802 48.7237 43.8888 48.6094 43.7649C48.5216 43.6698 48.5664 43.3875 48.6399 43.2309C48.6742 43.158 49.0126 43.1205 49.0488 43.1762C49.1699 43.3616 49.2176 43.5959 49.2929 43.812C49.2528 43.8523 49.2128 43.8907 49.1728 43.9291Z"/><path fill="#fff" d="M83.3105 43.8581C83.3105 43.6295 83.3105 43.4288 83.3105 43.1848C83.5146 43.1848 83.7052 43.1848 83.894 43.1848C84.0494 43.8744 83.9903 43.9493 83.3105 43.8581Z"/></svg>