<svg width="20" height="20" viewBox="0 0 20 20" fill="none" xmlns="http://www.w3.org/2000/svg">
<path fill-rule="evenodd" clip-rule="evenodd" d="M10.0009 0C7.28507 0 6.94424 0.011875 5.87756 0.0604167C4.81297 0.109167 4.08629 0.277708 3.45045 0.525C2.79274 0.780417 2.23481 1.12208 1.67898 1.67813C1.12272 2.23396 0.78105 2.79187 0.524797 3.44937C0.276878 4.08542 0.108126 4.81229 0.060209 5.87646C0.0125001 6.94313 0 7.28417 0 10C0 12.7158 0.0120835 13.0556 0.0604173 14.1223C0.109376 15.1869 0.27792 15.9135 0.525005 16.5494C0.780633 17.2071 1.1223 17.765 1.67835 18.3208C2.23398 18.8771 2.7919 19.2196 3.4492 19.475C4.08546 19.7223 4.81234 19.8908 5.87673 19.9396C6.94341 19.9881 7.28403 20 9.99969 20C12.7158 20 13.0556 19.9881 14.1222 19.9396C15.1868 19.8908 15.9143 19.7223 16.5506 19.475C17.2081 19.2196 17.7652 18.8771 18.3208 18.3208C18.8771 17.765 19.2187 17.2071 19.475 16.5496C19.7208 15.9135 19.8896 15.1867 19.9396 14.1225C19.9875 13.0558 20 12.7158 20 10C20 7.28417 19.9875 6.94333 19.9396 5.87667C19.8896 4.81208 19.7208 4.08542 19.475 3.44958C19.2187 2.79188 18.8771 2.23396 18.3208 1.67813C17.7646 1.12188 17.2083 0.780208 16.55 0.525C15.9125 0.277708 15.1854 0.109167 14.1208 0.0604167C13.0541 0.011875 12.7145 0 9.99781 0H10.0009ZM9.1038 1.80206C9.37005 1.80164 9.66714 1.80206 10.0009 1.80206C12.6709 1.80206 12.9874 1.81164 14.0418 1.85956C15.0168 1.90414 15.5459 2.06706 15.8985 2.20393C16.3651 2.38518 16.6978 2.60185 17.0476 2.95185C17.3976 3.30185 17.6143 3.63518 17.796 4.10185C17.9328 4.45393 18.096 4.9831 18.1404 5.9581C18.1883 7.01226 18.1987 7.32893 18.1987 9.99768C18.1987 12.6664 18.1883 12.9831 18.1404 14.0373C18.0958 15.0123 17.9328 15.5414 17.796 15.8935C17.6147 16.3602 17.3976 16.6925 17.0476 17.0423C16.6976 17.3923 16.3653 17.6089 15.8985 17.7902C15.5464 17.9277 15.0168 18.0902 14.0418 18.1348C12.9876 18.1827 12.6709 18.1931 10.0009 18.1931C7.33066 18.1931 7.0142 18.1827 5.96002 18.1348C4.98501 18.0898 4.45584 17.9268 4.10312 17.79C3.63645 17.6087 3.30312 17.3921 2.95311 17.0421C2.60311 16.6921 2.38644 16.3596 2.20477 15.8927C2.0679 15.5406 1.90477 15.0114 1.86039 14.0364C1.81248 12.9823 1.80289 12.6656 1.80289 9.99518C1.80289 7.32476 1.81248 7.00976 1.86039 5.9556C1.90498 4.9806 2.0679 4.45143 2.20477 4.09893C2.38602 3.63226 2.60311 3.29893 2.95311 2.94893C3.30312 2.59893 3.63645 2.38226 4.10312 2.2006C4.45563 2.0631 4.98501 1.9006 5.96002 1.85581C6.88253 1.81414 7.24003 1.80164 9.1038 1.79956V1.80206ZM15.3389 3.46248C14.6764 3.46248 14.1389 3.99935 14.1389 4.66206C14.1389 5.32456 14.6764 5.86206 15.3389 5.86206C16.0014 5.86206 16.5389 5.32456 16.5389 4.66206C16.5389 3.99956 16.0014 3.46248 15.3389 3.46248ZM10.001 4.86456C7.16488 4.86456 4.86548 7.16393 4.86548 9.99997C4.86548 12.836 7.16488 15.1343 10.001 15.1343C12.837 15.1343 15.1356 12.836 15.1356 9.99997C15.1356 7.16393 12.837 4.86456 10.001 4.86456ZM10.0009 6.66664C11.8418 6.66664 13.3343 8.15893 13.3343 9.99997C13.3343 11.8408 11.8418 13.3333 10.0009 13.3333C8.15985 13.3333 6.66755 11.8408 6.66755 9.99997C6.66755 8.15893 8.15985 6.66664 10.0009 6.66664Z" fill="white"/>
</svg>
