<svg width="12" height="17" viewBox="0 0 12 17" fill="none" xmlns="http://www.w3.org/2000/svg">
<path fill-rule="evenodd" clip-rule="evenodd" d="M6.01761 0C2.83132 0 0.247803 2.52564 0.247803 5.64127C0.247803 6.4458 0.423712 7.211 0.733311 7.9035L6.11612 16.6294L11.3019 7.9035C11.6208 7.1934 11.7856 6.42185 11.7851 5.64127C11.7851 2.52564 9.20391 0 6.01761 0ZM6.01761 9.64248C5.54144 9.6417 5.07009 9.54554 4.63051 9.35951C4.19092 9.17348 3.79172 8.90121 3.45572 8.55828C3.11973 8.21536 2.85353 7.80849 2.67234 7.36094C2.49115 6.91338 2.39852 6.43392 2.39975 5.94997C2.39883 5.46616 2.49167 4.9869 2.67299 4.53956C2.8543 4.09221 3.12053 3.68555 3.45648 3.34277C3.79243 3 4.19152 2.72784 4.63096 2.54183C5.0704 2.35581 5.54158 2.25959 6.01761 2.25865C6.97901 2.26086 7.90021 2.6509 8.57881 3.34305C9.25741 4.0352 9.63789 4.97285 9.63664 5.94997C9.6382 6.92729 9.25786 7.86525 8.57923 8.55766C7.90059 9.25007 6.97921 9.64027 6.01761 9.64248ZM8.33609 5.90229C8.33671 6.21246 8.27719 6.51972 8.16093 6.80651C8.04468 7.09329 7.87397 7.35399 7.65855 7.5737C7.44314 7.79341 7.18724 7.96784 6.90548 8.087C6.62372 8.20617 6.32162 8.26775 6.01644 8.26822C5.40039 8.26664 4.81016 8.01656 4.37543 7.57293C3.9407 7.1293 3.69703 6.52841 3.69796 5.90229C3.6975 5.59238 3.7571 5.28541 3.87337 4.9989C3.98963 4.7124 4.16028 4.45197 4.37557 4.2325C4.59086 4.01302 4.84658 3.8388 5.12812 3.71976C5.40966 3.60073 5.71151 3.53922 6.01644 3.53875C7.29706 3.53875 8.33609 4.59835 8.33609 5.90229Z" fill="white"/>
</svg>
