<svg width="18" height="14" viewBox="0 0 18 14" fill="none" xmlns="http://www.w3.org/2000/svg">
<path d="M17.659 4.62292C17.7961 4.5099 18 4.61562 18 4.79427V12.25C18 13.2161 17.2441 14 16.3125 14H1.6875C0.755859 14 0 13.2161 0 12.25V4.79792C0 4.61562 0.200391 4.51354 0.341016 4.62656C1.12852 5.26094 2.17266 6.06667 5.75859 8.76823C6.50039 9.32969 7.75195 10.5109 9 10.5036C10.2551 10.5146 11.5312 9.30781 12.2449 8.76823C15.8309 6.06667 16.8715 5.25729 17.659 4.62292ZM9 9.33333C9.81563 9.34792 10.9898 8.26875 11.5805 7.82396C16.2457 4.31302 16.6008 4.00677 17.6766 3.13177C17.8805 2.96771 18 2.7125 18 2.44271V1.75C18 0.783854 17.2441 0 16.3125 0H1.6875C0.755859 0 0 0.783854 0 1.75V2.44271C0 2.7125 0.119531 2.96406 0.323437 3.13177C1.39922 4.00312 1.7543 4.31302 6.41953 7.82396C7.01016 8.26875 8.18437 9.34792 9 9.33333Z" fill="white"/>
</svg>
